{"title":"The.Torture.Club.2014.720p.BrRip.x264 - N3kr4","uid":11629949,"size":1015573883,"categoryP":"video","categoryS":"hd___movies","magnet":"?xt=urn:btih:9febec7ace1d3c9123b99e3a5c7645114d7f08f3&amp;dn=The.Torture.Club.2014.720p.BrRip.x264+-+N3kr4&amp;tr=udp%3A%2F%2Ftracker.openbittorrent.com%3A80&amp;tr=udp%3A%2F%2Fopen.demonii.com%3A1337&amp;tr=udp%3A%2F%2Ftracker.coppersurfer.tk%3A6969&amp;tr=udp%3A%2F%2Fexodus.desync.com%3A6969","seeders":5,"leechers":1,"uploader":"Falcon.G13","files":2,"time":1417668368,"description":"]http://i.imgur.com/LiZlOht.jpg\n &lt;a href=&quot;\nhttp://i.imgur.com/GgUDI0F.jpg&quot; rel=&quot;nofollow&quot; target=&quot;_NEW&quot;&gt;\nhttp://i.imgur.com/GgUDI0F.jpg&lt;/a&gt; &lt;a href=&quot;\nhttp://i.imgur.com/zOYAB60.jpg&quot; rel=&quot;nofollow&quot; target=&quot;_NEW&quot;&gt;\nhttp://i.imgur.com/zOYAB60.jpg&lt;/a&gt; &lt;a href=&quot;\nhttp://i.imgur.com/zbCtj2V.jpg&quot; rel=&quot;nofollow&quot; target=&quot;_NEW&quot;&gt;\nhttp://i.imgur.com/zbCtj2V.jpg&lt;/a&gt; &lt;a href=&quot;\nhttp://i.imgur.com/e7QyIj1.jpg&quot; rel=&quot;nofollow&quot; target=&quot;_NEW&quot;&gt;\nhttp://i.imgur.com/e7QyIj1.jpg&lt;/a&gt; &lt;a href=&quot;\nhttp://i.imgur.com/AVyMoq0.jpg&quot; rel=&quot;nofollow&quot; target=&quot;_NEW&quot;&gt;\nhttp://i.imgur.com/AVyMoq0.jpg&lt;/a&gt;\n\nGeneral\nComplete name : The.Torture.Club.2014.720p.BrRip.x264 - N3kr4.avi\nFormat : AVI\nFormat/Info : Audio Video Interleave\nFile size : 968 MiB\nDuration : 1h 46mn\nOverall bit rate : 1 268 Kbps\nWriting application : Lavf55.7.100\n\nVideo\nID : 0\nFormat : AVC\nFormat/Info : Advanced Video Codec\nFormat profile : &lt;a class=&quot;__cf_email__&quot; href=&quot;/cdn-cgi/l/email-protection&quot; data-cfemail=&quot;7c311d15123c3048524c&quot;&gt;[email&amp;#160;protected]&lt;/a&gt;&lt;script cf-hash='f9e31' type=&quot;text/javascript&quot;&gt;\n/* &lt;![CDATA[ */!function(){try{var t=&quot;currentScript&quot;in document?document.currentScript:function(){for(var t=document.getElementsByTagName(&quot;script&quot;),e=t.length;e--;)if(t[e].getAttribute(&quot;cf-hash&quot;))return t[e]}();if(t&amp;&amp;t.previousSibling){var e,r,n,i,c=t.previousSibling,a=c.getAttribute(&quot;data-cfemail&quot;);if(a){for(e=&quot;&quot;,r=parseInt(a.substr(0,2),16),n=2;a.length-n;n+=2)i=parseInt(a.substr(n,2),16)^r,e+=String.fromCharCode(i);e=document.createTextNode(e),c.parentNode.replaceChild(e,c)}}}catch(u){}}();/* ]]&gt; */&lt;/script&gt;\nFormat settings, CABAC : Yes\nFormat settings, ReFrames : 3 frames\nCodec ID : H264\nDuration : 1h 46mn\nBit rate : 999 Kbps\nWidth : 1 280 pixels\nHeight : 720 pixels\nDisplay aspect ratio : 16:9\nFrame rate mode : Variable\nFrame rate : 23.976 fps\nColor space : YUV\nChroma subsampling : 4:2:0\nBit depth : 8 bits\nScan type : Progressive\nBits/(Pixel*Frame) : 0.045\nStream size : 763 MiB (79%)\n\nAudio\nID : 1\nFormat : MPEG Audio\nFormat version : Version 1\nFormat profile : Layer 3\nMode : Joint stereo\nCodec ID : 55\nCodec ID/Hint : MP3\nDuration : 1h 46mn\nBit rate mode : Constant\nBit rate : 256 Kbps\nChannel(s) : 2 channels\nSampling rate : 48.0 KHz\nCompression mode : Lossy\nStream size : 196 MiB (20%)\nAlignment : Aligned on interleaves\nInterleave, duration : 24 ms (0.58 video frame)\nInterleave, preload duration : 24 ms","torrent":{"xt":"urn:btih:9febec7ace1d3c9123b99e3a5c7645114d7f08f3","amp;dn":"The.Torture.Club.2014.720p.BrRip.x264+-+N3kr4","amp;tr":["udp%3A%2F%2Ftracker.openbittorrent.com%3A80","udp%3A%2F%2Fopen.demonii.com%3A1337","udp%3A%2F%2Ftracker.coppersurfer.tk%3A6969","udp%3A%2F%2Fexodus.desync.com%3A6969"],"infoHash":"9febec7ace1d3c9123b99e3a5c7645114d7f08f3","infoHashBuffer":{"type":"Buffer","data":[159,235,236,122,206,29,60,145,35,185,158,58,92,118,69,17,77,127,8,243]},"announce":[],"urlList":[]}}